<?xml version="1.0" encoding="UTF-8"?>
<svg id="Capa_2" data-name="Capa 2" xmlns="http://www.w3.org/2000/svg" viewBox="0 0 242.58 82.97">
  <defs>
    <style>
      .cls-1 {
        fill: #000;
        stroke-width: 0px;
      }
    </style>
  </defs>
  <g id="Capa_1-2" data-name="Capa 1">
    <g>
      <rect class="cls-1" width="5.72" height="47.26"/>
      <polygon class="cls-1" points="25.84 23.23 21.65 27.09 36.3 47.26 43.47 47.26 25.84 23.23"/>
      <polygon class="cls-1" points="11.44 28.73 42.57 0 35.06 0 11.44 21.85 11.44 28.73"/>
      <polygon class="cls-1" points="68.68 47.26 68.68 27.49 47.46 0 54.28 0 71.44 22.53 71.99 22.53 89.14 0 95.75 0 74.47 27.49 74.47 47.26 68.68 47.26"/>
      <path class="cls-1" d="M108.69,23.01h23.08c2.85,0,5.07-.85,6.68-2.55,1.61-1.7,2.41-3.95,2.41-6.75,0-1.79-.35-3.34-1.07-4.65-.71-1.31-1.74-2.32-3.07-3.03-1.33-.71-2.98-1.07-4.96-1.07h-23.08v18.05ZM102.97,47.26V0h29.69c3.07,0,5.65.6,7.71,1.79,2.07,1.2,3.63,2.81,4.68,4.86,1.06,2.04,1.58,4.4,1.58,7.06,0,3.17-.77,5.92-2.31,8.27-1.54,2.34-3.66,4-6.37,4.96l10.13,20.32h-6.41l-9.58-19.29h-23.42v19.29h-5.72Z"/>
      <polygon class="cls-1" points="171.34 47.26 171.34 27.49 150.12 0 156.94 0 174.1 22.53 174.65 22.53 191.8 0 198.41 0 177.13 27.49 177.13 47.26 171.34 47.26"/>
      <g>
        <path class="cls-1" d="M206,30.04h22.53l-6.89-15.43c-.23-.46-.52-1.09-.86-1.89-.34-.8-.71-1.68-1.1-2.62-.39-.94-.77-1.86-1.14-2.76-.37-.89-.69-1.66-.96-2.31h-.55c-.37.96-.82,2.06-1.34,3.27-.53,1.22-1.03,2.39-1.52,3.51-.48,1.13-.88,2.06-1.21,2.79l-6.96,15.43ZM192.36,47.26L213.85,0h7.23l21.49,47.26h-6.27l-5.51-12.26h-27l-5.51,12.26h-5.92Z"/>
        <path class="cls-1" d="M200.01,71.73c.83,0,1.19.51,1.19,1.3,0,1.76-2.05,3.01-4.05,3.03.18-2.05,1.43-4.33,2.87-4.33M202.4,73.14c0-.99-.83-1.66-2.21-1.66-2.43,0-4.4,2.46-4.4,5.01,0,2.05,1.04,3.25,2.64,3.25,1.43,0,2.32-.77,2.9-1.54l-.11-.19c-.56.7-1.41,1.35-2.34,1.35-1.02,0-1.75-1.22-1.75-2.84v-.21c2.4-.03,5.27-.78,5.27-3.17M191.66,79.35c-1.46,0-1.81-1.38-1.81-2.85,0-2.34,1.3-4.77,3.04-4.77.53,0,.99.22,1.25.61l.38,2.02h.13l.5-2.51c-.5-.18-1.15-.37-2.18-.37-2.69,0-4.56,2.35-4.56,5.12,0,1.97.99,3.14,2.94,3.14,1.06,0,1.95-.59,2.47-1.12l-.13-.16c-.51.43-1.33.9-2.03.9M186.98,78.92c-.22.19-.61.37-.8.37-.22,0-.35-.19-.29-.5l1.01-5c.27-1.38-.18-2.32-1.52-2.32-1.01,0-2.19.86-3.11,2.88l.53-2.66-1.97.06-.02.11.67.4-1.39,7.17h1.18l.86-4.39c.58-1.43,1.76-3.24,2.93-3.24.78,0,.88.8.62,2.02l-.94,4.48c-.18.86.11,1.41.85,1.41.54,0,.99-.21,1.44-.61l-.06-.21ZM176.67,71.73c.83,0,1.19.51,1.19,1.3,0,1.76-2.05,3.01-4.05,3.03.18-2.05,1.43-4.33,2.87-4.33M179.06,73.14c0-.99-.83-1.66-2.21-1.66-2.43,0-4.4,2.46-4.4,5.01,0,2.05,1.04,3.25,2.64,3.25,1.43,0,2.32-.77,2.9-1.54l-.11-.19c-.56.7-1.41,1.35-2.34,1.35-1.03,0-1.75-1.22-1.75-2.84v-.21c2.4-.03,5.27-.78,5.27-3.17M169.69,78.79l1.38-7.09-1.95.06-.03.11.69.4-1.18,6.1c-.16.82.14,1.36.88,1.36.54,0,.91-.22,1.38-.61l-.06-.21c-.22.19-.61.37-.8.37-.22,0-.35-.19-.29-.5M171.12,68.13c-.53,0-1.02.5-1.02,1.01,0,.38.29.69.69.69.51,0,1.02-.5,1.02-1.01,0-.38-.3-.69-.69-.69M167.45,71.48c-1.15,0-2.18,1.82-2.58,2.78l.46-2.56-1.92.08-.02.11.66.4-1.36,7.16h1.14l.82-4.24c.3-.91,1.12-2.59,2.16-2.59.37,0,.62.18.86.42l.59-1.31c-.13-.11-.43-.24-.82-.24M159.27,71.73c.83,0,1.19.51,1.19,1.3,0,1.76-2.05,3.01-4.05,3.03.18-2.05,1.43-4.33,2.87-4.33M161.65,73.14c0-.99-.83-1.66-2.21-1.66-2.43,0-4.4,2.46-4.4,5.01,0,2.05,1.04,3.25,2.64,3.25,1.43,0,2.32-.77,2.9-1.54l-.11-.19c-.56.7-1.41,1.35-2.34,1.35-1.03,0-1.75-1.22-1.75-2.84v-.21c2.4-.03,5.27-.78,5.27-3.17M149.5,79.48c-.53,0-1.07-.27-1.47-.74l.8-4.13c.67-1.63,1.66-2.83,2.64-2.83.77,0,1.12.75,1.12,1.83,0,2.69-1.38,5.88-3.09,5.88M151.74,71.48c-1.18,0-2.13.91-2.83,2.42l.45-2.19-1.92.06-.02.11.67.4-2.1,10.69,2.1-.18.02-.1-.78-.43.64-3.26c.42.48,1.04.73,1.63.73,2.39,0,4.4-2.99,4.4-5.59,0-1.68-.9-2.67-2.26-2.67M143.69,71.76l-.05.13,1.04.38-2.11,2.83-1.6-3.34h-1.73l-.02.13.58.38,1.6,3.35-2.67,3.31-1.17.38-.03.13h2.54l.05-.13-1.02-.38,2.4-3.11,1.73,3.62h1.78l.02-.13-.61-.4-1.73-3.6,2.34-3.04,1.02-.38.03-.13h-2.38ZM135.37,71.73c.83,0,1.18.51,1.18,1.3,0,1.76-2.05,3.01-4.05,3.03.18-2.05,1.43-4.33,2.87-4.33M137.75,73.14c0-.99-.83-1.66-2.21-1.66-2.43,0-4.4,2.46-4.4,5.01,0,2.05,1.04,3.25,2.64,3.25,1.43,0,2.32-.77,2.9-1.54l-.11-.19c-.56.7-1.41,1.35-2.34,1.35-1.03,0-1.75-1.22-1.75-2.84v-.21c2.4-.03,5.27-.78,5.27-3.17M125.97,78.92c-.22.19-.61.37-.8.37-.22,0-.35-.19-.29-.5l1.01-5c.27-1.38-.18-2.32-1.52-2.32-.94,0-2.03.75-2.91,2.5l.03-.18c.3-1.38-.18-2.32-1.52-2.32-1.01,0-2.19.86-3.11,2.88l.53-2.66-1.97.06-.02.11.67.4-1.39,7.17h1.18l.86-4.39c.58-1.43,1.76-3.24,2.93-3.24.78,0,.9.8.62,2.02l-1.23,5.6h1.18l1.04-4.74c.62-1.35,1.71-2.88,2.79-2.88.78,0,.88.8.62,2.02l-.94,4.48c-.18.86.11,1.41.85,1.41.54,0,.99-.21,1.44-.61l-.06-.21ZM109.36,79.5c-1.07,0-1.54-1.41-1.54-2.83,0-2.29,1.09-4.95,2.75-4.95,1.06,0,1.54,1.41,1.54,2.83,0,2.29-1.07,4.95-2.75,4.95M110.77,71.48c-2.4,0-4.31,2.43-4.31,5.19,0,1.67.78,3.07,2.7,3.07,2.4,0,4.31-2.43,4.31-5.19,0-1.67-.78-3.07-2.7-3.07M103.09,75.99c-.46,1.44-1.58,3.51-2.75,3.51-.59,0-1.04-.77-1.04-2.29,0-2.43,1.49-5.49,3.15-5.49.64,0,1.17.46,1.26,1.23l-.62,3.04ZM103.76,78.79l2.07-10.63-1.97.08-.02.11.69.4-.7,3.73-.02.02c-.14-.51-.59-1.02-1.42-1.02-2.35,0-4.48,2.85-4.48,5.73,0,1.54.82,2.53,2.29,2.53,1.3,0,2.16-1.47,2.69-2.67l-.27,1.31c-.16.82.14,1.36.88,1.36.54,0,.96-.22,1.42-.61l-.06-.21c-.22.19-.61.37-.8.37-.22,0-.35-.19-.29-.5M94.48,71.73c.83,0,1.19.51,1.19,1.3,0,1.76-2.05,3.01-4.05,3.03.18-2.05,1.43-4.33,2.87-4.33M96.86,73.14c0-.99-.83-1.66-2.21-1.66-2.43,0-4.4,2.46-4.4,5.01,0,2.05,1.04,3.25,2.64,3.25,1.43,0,2.32-.77,2.9-1.54l-.11-.19c-.56.7-1.41,1.35-2.34,1.35-1.02,0-1.75-1.22-1.75-2.84v-.21c2.4-.03,5.27-.78,5.27-3.17M86.82,71.73c.83,0,1.18.51,1.18,1.3,0,1.76-2.05,3.01-4.05,3.03.18-2.05,1.43-4.33,2.87-4.33M89.21,73.14c0-.99-.83-1.66-2.21-1.66-2.43,0-4.4,2.46-4.4,5.01,0,2.05,1.04,3.25,2.64,3.25,1.43,0,2.32-.77,2.9-1.54l-.11-.19c-.56.7-1.41,1.35-2.34,1.35-1.03,0-1.75-1.22-1.75-2.84v-.21c2.4-.03,5.27-.78,5.27-3.17M81.94,71.48c-1.15,0-2.18,1.82-2.58,2.78l.46-2.56-1.92.08-.02.11.66.4-1.36,7.16h1.14l.82-4.24c.3-.91,1.12-2.59,2.16-2.59.37,0,.62.18.86.42l.59-1.31c-.13-.11-.43-.24-.82-.24M76.58,67.95c-1.47,0-2.61,1.63-2.99,3.63l-.03.18-1.39.21-.03.19h1.34l-2.06,10.81,1.42-1.14,1.84-9.67h1.65l.06-.4h-1.63l.22-1.95c.11-1.15.67-1.52,1.17-1.52.16,0,.4.05.56.14l.4,1.94h.13l.43-2.16c-.24-.11-.64-.26-1.09-.26M64.55,71.73c.83,0,1.19.51,1.19,1.3,0,1.76-2.05,3.01-4.05,3.03.18-2.05,1.43-4.33,2.87-4.33M66.94,73.14c0-.99-.83-1.66-2.21-1.66-2.43,0-4.4,2.46-4.4,5.01,0,2.05,1.04,3.25,2.64,3.25,1.43,0,2.32-.77,2.9-1.54l-.11-.19c-.56.7-1.41,1.35-2.34,1.35-1.02,0-1.75-1.22-1.75-2.84v-.21c2.4-.03,5.27-.78,5.27-3.17M58.9,78.92c-.22.19-.61.37-.8.37-.22,0-.35-.19-.29-.5l1.01-5c.27-1.38-.18-2.32-1.52-2.32-1.01,0-2.18.85-3.09,2.83l1.22-6.15-1.97.08-.02.11.69.4-2.11,10.69h1.18l.86-4.39c.58-1.42,1.76-3.23,2.93-3.23.78,0,.88.8.62,2.02l-.94,4.48c-.18.86.1,1.41.85,1.41.54,0,.98-.22,1.44-.61l-.06-.21ZM43.26,68.24l-.48,2.43h.13l1.5-2.11h2.53l-2,10.38-1.09.38-.03.13h3.36l.03-.13-.93-.38,2.02-10.38h2.54l.66,2.11h.13l.5-2.43h-8.87Z"/>
      </g>
    </g>
  </g>
</svg>